<svg xmlns="http://www.w3.org/2000/svg" xmlns:xlink="http://www.w3.org/1999/xlink" width="128" zoomAndPan="magnify" viewBox="0 0 96 95.999999" height="128" preserveAspectRatio="xMidYMid meet" version="1.0"><defs><clipPath id="b8ae53e6c2"><path d="M 0 15.839844 L 96 15.839844 L 96 80.339844 L 0 80.339844 Z M 0 15.839844 " clip-rule="nonzero"/></clipPath></defs><rect x="-9.6" width="115.2" fill="#ffffff" y="-9.6" height="115.199999" fill-opacity="1"/><rect x="-9.6" width="115.2" fill="#5e17eb" y="-9.6" height="115.199999" fill-opacity="1"/><g clip-path="url(#b8ae53e6c2)"><path fill="#cb6ce6" d="M 56.554688 25.148438 L 47.175781 37.207031 C 47.175781 37.207031 47.148438 37.179688 47.148438 37.179688 C 46.703125 36.789062 46.226562 36.398438 45.753906 36.007812 C 42.207031 33.269531 37.851562 31.511719 33.890625 31.511719 C 24.425781 31.511719 16.554688 38.714844 16.554688 48.121094 C 16.554688 57.640625 24.789062 64.675781 33.554688 64.675781 C 38.046875 64.675781 42.152344 62.804688 45.78125 59.957031 L 45.78125 77.851562 C 42.066406 79.304688 37.992188 80.140625 33.554688 80.140625 C 16.191406 80.113281 0 67.300781 0 48.011719 C 0 29.835938 14.710938 15.851562 33.832031 15.851562 C 37.769531 15.90625 41.871094 16.800781 45.753906 18.363281 C 46.226562 18.558594 46.675781 18.753906 47.148438 18.949219 C 50.554688 20.542969 53.792969 22.609375 56.554688 25.148438 Z M 96 60.515625 C 96 70.675781 87.457031 80.140625 74.589844 80.140625 L 47.148438 80.140625 L 47.148438 39.050781 L 47.371094 39.246094 L 58.453125 25.007812 L 57.503906 24.144531 C 54.460938 21.378906 50.917969 19.117188 47.148438 17.472656 L 47.148438 15.851562 L 68.28125 15.851562 C 79.921875 15.851562 88.464844 23.695312 88.464844 32.546875 C 88.464844 39.160156 84.082031 43.90625 81.457031 43.90625 C 88.296875 43.90625 96 50.800781 96 60.515625 Z M 63.5625 40.78125 L 67.636719 40.78125 C 71.351562 40.78125 74.140625 38.9375 74.140625 35.644531 C 74.140625 32.546875 71.433594 30.703125 67.777344 30.703125 L 63.589844 30.703125 L 63.589844 40.78125 Z M 79.640625 58.476562 C 79.640625 54.738281 76.933594 52.449219 72.105469 52.449219 L 63.5625 52.421875 L 63.5625 64.621094 L 71.964844 64.621094 C 75.902344 64.621094 79.640625 62.695312 79.640625 58.476562 Z M 79.640625 58.476562 " fill-opacity="1" fill-rule="nonzero"/></g></svg>